<?xml version="1.0" encoding="UTF-8" standalone="no"?>
<svg
        xmlns:dc="http://purl.org/dc/elements/1.1/"
        xmlns:cc="http://creativecommons.org/ns#"
        xmlns:rdf="http://www.w3.org/1999/02/22-rdf-syntax-ns#"
        xmlns="http://www.w3.org/2000/svg"
        xmlns:sodipodi="http://sodipodi.sourceforge.net/DTD/sodipodi-0.dtd"
        xmlns:inkscape="http://www.inkscape.org/namespaces/inkscape"
        version="1.1"
        x="0px"
        y="0px"
        viewBox="0 0 100 125"
        enable-background="new 0 0 100 100"
        xml:space="preserve"
        id="svg70"
        sodipodi:docname="performance.svg"
        inkscape:version="1.0.1 (0767f8302a, 2020-10-17)"><metadata
     id="metadata76"><rdf:RDF><cc:Work
         rdf:about=""><dc:format>image/svg+xml</dc:format><dc:type
           rdf:resource="http://purl.org/dc/dcmitype/StillImage" /></cc:Work></rdf:RDF></metadata><defs
     id="defs74" /><sodipodi:namedview
     pagecolor="#ffffff"
     bordercolor="#666666"
     borderopacity="1"
     objecttolerance="10"
     gridtolerance="10"
     guidetolerance="10"
     inkscape:pageopacity="0"
     inkscape:pageshadow="2"
     inkscape:window-width="1667"
     inkscape:window-height="1030"
     id="namedview72"
     showgrid="false"
     inkscape:zoom="4.032"
     inkscape:cx="40.819682"
     inkscape:cy="67.799272"
     inkscape:window-x="3611"
     inkscape:window-y="181"
     inkscape:window-maximized="0"
     inkscape:current-layer="svg70" /><g
     id="g933"
     transform="translate(0.48799972,12.277)"><g
       id="g4"
       transform="matrix(0.57236521,0,0,0.61322392,21.173054,19.425055)"><path
         d="M 49.512,96.692 C 23.876,96.692 3.02,75.845 3.02,50.222 3.02,24.599 23.876,3.754 49.512,3.754 c 25.636,0 46.492,20.846 46.492,46.469 0,25.623 -20.857,46.469 -46.492,46.469 z m 0,-88.938 c -23.43,0 -42.492,19.051 -42.492,42.469 0,23.418 19.062,42.47 42.492,42.47 23.431,0 42.492,-19.052 42.492,-42.47 0,-23.418 -19.062,-42.469 -42.492,-42.469 z"
         id="path2" /></g><g
       id="g8"
       transform="matrix(0.57236521,0,0,0.61322392,21.173054,19.425055)"><polygon
         points="17.746,82.125 15.458,78.844 33.339,66.379 63.708,66.379 83.9,78.78 81.807,82.188 62.577,70.379 34.596,70.379 "
         id="polygon6" /></g><g
       id="g12"
       transform="matrix(0.57236521,0,0,0.61322392,21.173054,19.425055)"><path
         d="m 50.606,58.929 -0.469,-0.101 c -0.251,-0.053 -2.479,-0.577 -3.441,-2.538 -0.432,-0.88 -0.739,-2.359 0.25,-4.407 l 0.28,-0.581 27.562,-8.789 c 0,0 0.41,-0.044 0.897,-0.044 1.541,0 2.464,0.493 2.743,1.465 0.443,1.542 -1.234,2.592 -2.041,3.097 -3.554,2.229 -24.452,11.32 -25.341,11.707 z M 49.417,53.75 c -0.137,0.421 -0.198,0.872 -0.028,1.219 0.188,0.385 0.638,0.646 0.979,0.792 4.903,-2.136 12.558,-5.523 18.075,-8.101 z"
         id="path10" /></g><g
       id="g16"
       transform="matrix(0.57236521,0,0,0.61322392,21.173054,19.425055)"><path
         d="m 36.222,88.012 c -2.183,0 -3.959,-1.776 -3.959,-3.96 v -6.34 c 0,-2.184 1.776,-3.96 3.959,-3.96 2.184,0 3.961,1.776 3.961,3.96 v 6.34 c 0,2.183 -1.777,3.96 -3.961,3.96 z m 0,-11.26 c -0.529,0 -0.959,0.431 -0.959,0.96 v 6.34 c 0,0.529 0.431,0.96 0.959,0.96 0.53,0 0.961,-0.431 0.961,-0.96 v -6.34 c 0,-0.529 -0.431,-0.96 -0.961,-0.96 z"
         id="path14" /></g><g
       id="g20"
       transform="matrix(0.57236521,0,0,0.61322392,21.173054,19.425055)"><path
         d="m 44.834,88.012 c -2.184,0 -3.961,-1.776 -3.961,-3.96 v -6.34 c 0,-2.184 1.777,-3.96 3.961,-3.96 2.183,0 3.959,1.776 3.959,3.96 v 6.34 c 10e-4,2.183 -1.775,3.96 -3.959,3.96 z m 0,-11.26 c -0.53,0 -0.961,0.431 -0.961,0.96 v 6.34 c 0,0.529 0.431,0.96 0.961,0.96 0.529,0 0.959,-0.431 0.959,-0.96 v -6.34 c 10e-4,-0.529 -0.43,-0.96 -0.959,-0.96 z"
         id="path18" /></g><g
       id="g24"
       transform="matrix(0.57236521,0,0,0.61322392,21.173054,19.425055)"><path
         d="m 53.375,88.012 c -2.184,0 -3.96,-1.776 -3.96,-3.96 v -6.34 c 0,-2.184 1.777,-3.96 3.96,-3.96 2.183,0 3.961,1.776 3.961,3.96 v 6.34 c 0,2.183 -1.777,3.96 -3.961,3.96 z m 0,-11.26 c -0.529,0 -0.961,0.431 -0.961,0.96 v 6.34 c 0,0.529 0.432,0.96 0.961,0.96 0.53,0 0.961,-0.431 0.961,-0.96 v -6.34 c 0,-0.529 -0.431,-0.96 -0.961,-0.96 z"
         id="path22" /></g><g
       id="g28"
       transform="matrix(0.57236521,0,0,0.61322392,21.173054,19.425055)"><path
         d="m 61.986,88.012 c -2.184,0 -3.961,-1.776 -3.961,-3.96 v -6.34 c 0,-2.184 1.777,-3.96 3.961,-3.96 2.184,0 3.96,1.776 3.96,3.96 v 6.34 c 0,2.183 -1.776,3.96 -3.96,3.96 z m 0,-11.26 c -0.53,0 -0.961,0.431 -0.961,0.96 v 6.34 c 0,0.529 0.431,0.96 0.961,0.96 0.529,0 0.96,-0.431 0.96,-0.96 v -6.34 c 0,-0.529 -0.43,-0.96 -0.96,-0.96 z"
         id="path26" /></g><g
       id="g32"
       transform="matrix(0.57236521,0,0,0.61322392,21.173054,19.425055)"><rect
         x="47.055"
         y="10.318"
         width="3.46"
         height="9.5159998"
         id="rect30" /></g><g
       id="g36"
       transform="matrix(0.57236521,0,0,0.61322392,21.173054,19.425055)"><rect
         x="64.060997"
         y="15.212"
         transform="matrix(0.8767,0.4811,-0.4811,0.8767,17.7209,-29.1888)"
         width="3.461"
         height="9.5150003"
         id="rect34" /></g><g
       id="g40"
       transform="matrix(0.57236521,0,0,0.61322392,21.173054,19.425055)"><rect
         x="77.069"
         y="26.674"
         transform="matrix(0.5319,0.8468,-0.8468,0.5319,63.5031,-52.0149)"
         width="3.461"
         height="9.5159998"
         id="rect38" /></g><g
       id="g44"
       transform="matrix(0.57236521,0,0,0.61322392,21.173054,19.425055)"><rect
         x="82.934998"
         y="43.832001"
         transform="matrix(0.0731,0.9973,-0.9973,0.0731,126.9382,-39.4001)"
         width="3.461"
         height="9.5159998"
         id="rect42" /></g><g
       id="g48"
       transform="matrix(0.57236521,0,0,0.61322392,21.173054,19.425055)"><rect
         x="78.960999"
         y="61.185001"
         transform="matrix(-0.4773,0.8787,-0.8787,-0.4773,177.1537,26.512)"
         width="3.4619999"
         height="9.5159998"
         id="rect46" /></g><g
       id="g52"
       transform="matrix(0.57236521,0,0,0.61322392,21.173054,19.425055)"><rect
         x="29.686001"
         y="15.212"
         transform="matrix(-0.8767,0.4811,-0.4811,-0.8767,68.5667,22.3629)"
         width="3.461"
         height="9.5150003"
         id="rect50" /></g><g
       id="g56"
       transform="matrix(0.57236521,0,0,0.61322392,21.173054,19.425055)"><rect
         x="18.679001"
         y="26.674999"
         transform="matrix(-0.5319,0.8468,-0.8468,-0.5319,57.8822,30.869)"
         width="3.461"
         height="9.5159998"
         id="rect54" /></g><g
       id="g60"
       transform="matrix(0.57236521,0,0,0.61322392,21.173054,19.425055)"><rect
         x="12.813"
         y="43.833"
         transform="matrix(-0.0731,0.9973,-0.9973,-0.0731,64.067,37.6371)"
         width="3.461"
         height="9.5159998"
         id="rect58" /></g><g
       id="g64"
       transform="matrix(0.57236521,0,0,0.61322392,21.173054,19.425055)"><rect
         x="16.787001"
         y="61.185001"
         transform="matrix(0.4774,0.8787,-0.8787,0.4774,67.619,18.1897)"
         width="3.461"
         height="9.5159998"
         id="rect62" /></g></g></svg>
