<?xml version="1.0" encoding="UTF-8" standalone="no"?>
<!-- Created with Inkscape (http://www.inkscape.org/) -->

<svg
   xmlns:dc="http://purl.org/dc/elements/1.1/"
   xmlns:cc="http://creativecommons.org/ns#"
   xmlns:rdf="http://www.w3.org/1999/02/22-rdf-syntax-ns#"
   xmlns:svg="http://www.w3.org/2000/svg"
   xmlns="http://www.w3.org/2000/svg"
   xmlns:xlink="http://www.w3.org/1999/xlink"
   xmlns:sodipodi="http://sodipodi.sourceforge.net/DTD/sodipodi-0.dtd"
   xmlns:inkscape="http://www.inkscape.org/namespaces/inkscape"
   id="svg3038"
   height="256"
   width="256"
   version="1.1"
   inkscape:version="0.91 r13725"
   sodipodi:docname="osm4scala_logo.svg"
   inkscape:export-filename="/home/angelcervera/projects/osm4scala/osm4scala_logo.svg.png"
   inkscape:export-xdpi="90"
   inkscape:export-ydpi="90">
  <sodipodi:namedview
     pagecolor="#ffffff"
     bordercolor="#666666"
     borderopacity="1"
     objecttolerance="10"
     gridtolerance="10"
     guidetolerance="10"
     inkscape:pageopacity="0"
     inkscape:pageshadow="2"
     inkscape:window-width="1009"
     inkscape:window-height="593"
     id="namedview262"
     showgrid="false"
     inkscape:zoom="0.921875"
     inkscape:cx="-6.5084746"
     inkscape:cy="84.61017"
     inkscape:window-x="3630"
     inkscape:window-y="121"
     inkscape:window-maximized="0"
     inkscape:current-layer="svg3038" />
  <defs
     id="defs3040">
    <linearGradient
       id="linearGradient5762">
      <stop
         id="stop5764"
         stop-color="#2d3335"
         offset="0" />
      <stop
         id="stop5770"
         stop-color="#4c464a"
         offset=".5" />
      <stop
         id="stop5766"
         stop-color="#384042"
         offset="1" />
    </linearGradient>
    <linearGradient
       id="linearGradient4680">
      <stop
         id="stop4682"
         offset="0" />
      <stop
         id="stop4684"
         stop-opacity="0"
         offset="1" />
    </linearGradient>
    <linearGradient
       id="linearGradient4686-3"
       y2="-179.97"
       xlink:href="#linearGradient4680"
       gradientUnits="userSpaceOnUse"
       x2="9"
       y1="-94.672"
       x1="94.25" />
    <linearGradient
       id="linearGradient4742-3"
       y2="-30.438"
       xlink:href="#linearGradient4680"
       gradientUnits="userSpaceOnUse"
       x2="35.75"
       y1="-114.44"
       x1="50.75" />
    <linearGradient
       id="linearGradient4734-3"
       y2="-74.625"
       xlink:href="#linearGradient4680"
       gradientUnits="userSpaceOnUse"
       x2="115.25"
       y1="-163.12"
       x1="77.625" />
    <linearGradient
       id="linearGradient4726-9"
       y2="7.0625"
       xlink:href="#linearGradient4680"
       gradientUnits="userSpaceOnUse"
       x2="125.72"
       y1="-50.438"
       x1="56.5" />
    <linearGradient
       id="linearGradient4710-2"
       y2="-146.8"
       xlink:href="#linearGradient4680"
       gradientUnits="userSpaceOnUse"
       x2="180.75"
       y1="-163.3"
       x1="35" />
    <linearGradient
       id="linearGradient4718-4"
       y2="-41.609"
       xlink:href="#linearGradient4680"
       gradientUnits="userSpaceOnUse"
       x2="179"
       y1="-141.11"
       x1="57" />
    <linearGradient
       id="linearGradient4694-4"
       y2="39.75"
       xlink:href="#linearGradient4680"
       gradientUnits="userSpaceOnUse"
       x2="208.25"
       y1="-26.5"
       x1="156" />
    <linearGradient
       id="linearGradient4702-4"
       y2="-77.297"
       xlink:href="#linearGradient4680"
       gradientUnits="userSpaceOnUse"
       x2="235"
       y1="-169.3"
       x1="142.75" />
    <linearGradient
       id="linearGradient4806-9"
       y2="-113.72"
       xlink:href="#linearGradient4744-9"
       gradientUnits="userSpaceOnUse"
       x2="166.5"
       y1="-161.36"
       x1="214.25" />
    <linearGradient
       id="linearGradient4744-9">
      <stop
         id="stop4746-3"
         stop-color="#fff"
         offset="0" />
      <stop
         id="stop4748-8"
         stop-color="#fff"
         stop-opacity="0"
         offset="1" />
    </linearGradient>
    <linearGradient
       id="linearGradient4790-3"
       y2="-62.469"
       xlink:href="#linearGradient4744-9"
       gradientUnits="userSpaceOnUse"
       x2="57.656"
       y1="-126.5"
       x1="53.25" />
    <linearGradient
       id="linearGradient4758-2"
       y2="-17.125"
       xlink:href="#linearGradient4744-9"
       gradientUnits="userSpaceOnUse"
       x2="75.719"
       y1="6.625"
       x1="39.5" />
    <linearGradient
       id="linearGradient4750-9"
       y2="-121.44"
       xlink:href="#linearGradient4744-9"
       gradientUnits="userSpaceOnUse"
       x2="85.312"
       y1="-162.34"
       x1="102" />
    <linearGradient
       id="linearGradient4782-5"
       y2="-14.75"
       xlink:href="#linearGradient4744-9"
       gradientUnits="userSpaceOnUse"
       x2="63.5"
       y1="-78.094"
       x1="117.75" />
    <linearGradient
       id="linearGradient4798-4"
       y2="-60.75"
       xlink:href="#linearGradient4744-9"
       gradientUnits="userSpaceOnUse"
       x2="133.94"
       y1="-125.12"
       x1="180.69" />
    <linearGradient
       id="linearGradient4766-3"
       y2="33.375"
       xlink:href="#linearGradient4744-9"
       gradientUnits="userSpaceOnUse"
       x2="130.22"
       y1="-23.5"
       x1="170.75" />
    <linearGradient
       id="linearGradient4965"
       y2="-5.6563"
       xlink:href="#linearGradient4744-9"
       gradientUnits="userSpaceOnUse"
       y1="-76"
       x2="181.75"
       x1="213.5" />
    <linearGradient
       id="linearGradient5168"
       y2="-213.25"
       xlink:href="#linearGradient4680"
       gradientUnits="userSpaceOnUse"
       x2="9"
       gradientTransform="translate(0,-10)"
       y1="72.064"
       x1="210.17" />
    <clipPath
       id="clipPath5383"
       clipPathUnits="userSpaceOnUse">
      <path
         id="path5385"
         fill="#ceeeab"
         d="m9 12.25s7.5 13 11.75 27.75 6.25 25.5 6.25 25.5-5.5 12.75-8.25 24.75-5.75 23-5.75 23 5.75 16 9.25 30 3.75 24.25 3.75 24.25-4 10.25-7.5 24.25-5 30.75-5 30.75 9.25-2 28.5 1.25 32.25 6 32.25 6 12.75-2.75 24-6.25 16.25-6.5 16.25-6.5 5.5 0.5 22.5 6.25 29.25 8.5 29.25 8.5 13-2.75 26-5.75 26.5-8 26.5-8-0.75-5 4.25-24.5 8.75-28 8.75-28-0.5-4.5-3.75-19.75-10-29.75-10-29.75 1.75-10.5 6.75-23.75 10.25-26.75 10.25-26.75-4.75-15.25-7.5-29.75-8.25-25.75-8.25-25.75-24.25 9-31.75 10.5-21 5.25-21 5.25-9.75-4.25-22-8.5-29.75-5.5-29.75-5.5-3.25 3.5-22 8-27.5 5.75-27.5 5.75-18.5-9-31.5-11.5-24-2-24.75-1.75z" />
    </clipPath>
    <clipPath
       id="clipPath5426"
       clipPathUnits="userSpaceOnUse">
      <path
         id="path5428"
         fill="#ceeeab"
         d="m9 12.25s7.5 13 11.75 27.75 6.25 25.5 6.25 25.5-5.5 12.75-8.25 24.75-5.75 23-5.75 23 5.75 16 9.25 30 3.75 24.25 3.75 24.25-4 10.25-7.5 24.25-5 30.75-5 30.75 9.25-2 28.5 1.25 32.25 6 32.25 6 12.75-2.75 24-6.25 16.25-6.5 16.25-6.5 5.5 0.5 22.5 6.25 29.25 8.5 29.25 8.5 13-2.75 26-5.75 26.5-8 26.5-8-0.75-5 4.25-24.5 8.75-28 8.75-28-0.5-4.5-3.75-19.75-10-29.75-10-29.75 1.75-10.5 6.75-23.75 10.25-26.75 10.25-26.75-4.75-15.25-7.5-29.75-8.25-25.75-8.25-25.75-24.25 9-31.75 10.5-21 5.25-21 5.25-9.75-4.25-22-8.5-29.75-5.5-29.75-5.5-3.25 3.5-22 8-27.5 5.75-27.5 5.75-18.5-9-31.5-11.5-24-2-24.75-1.75z" />
    </clipPath>
    <clipPath
       id="clipPath5466"
       clipPathUnits="userSpaceOnUse">
      <path
         id="path5468"
         fill="#ceeeab"
         d="m9 12.25s7.5 13 11.75 27.75 6.25 25.5 6.25 25.5-5.5 12.75-8.25 24.75-5.75 23-5.75 23 5.75 16 9.25 30 3.75 24.25 3.75 24.25-4 10.25-7.5 24.25-5 30.75-5 30.75 9.25-2 28.5 1.25 32.25 6 32.25 6 12.75-2.75 24-6.25 16.25-6.5 16.25-6.5 5.5 0.5 22.5 6.25 29.25 8.5 29.25 8.5 13-2.75 26-5.75 26.5-8 26.5-8-0.75-5 4.25-24.5 8.75-28 8.75-28-0.5-4.5-3.75-19.75-10-29.75-10-29.75 1.75-10.5 6.75-23.75 10.25-26.75 10.25-26.75-4.75-15.25-7.5-29.75-8.25-25.75-8.25-25.75-24.25 9-31.75 10.5-21 5.25-21 5.25-9.75-4.25-22-8.5-29.75-5.5-29.75-5.5-3.25 3.5-22 8-27.5 5.75-27.5 5.75-18.5-9-31.5-11.5-24-2-24.75-1.75z" />
    </clipPath>
    <radialGradient
       id="radialGradient5751"
       gradientUnits="userSpaceOnUse"
       cy="86"
       cx="128"
       gradientTransform="matrix(1.0213 0 0 -1.0213 -212.72 173.83)"
       r="47">
      <stop
         id="stop5747"
         stop-color="#d0e9f2"
         stop-opacity="0"
         offset="0" />
      <stop
         id="stop5753"
         stop-color="#d0e9f2"
         stop-opacity="0"
         offset=".83933" />
      <stop
         id="stop5755"
         stop-color="#d0e9f2"
         stop-opacity=".28185"
         offset=".94309" />
      <stop
         id="stop5749"
         stop-color="#d0e9f2"
         offset="1" />
    </radialGradient>
    <linearGradient
       id="linearGradient5768"
       y2="150.38"
       xlink:href="#linearGradient5762"
       gradientUnits="userSpaceOnUse"
       x2="133"
       gradientTransform="matrix(-1,0,0,1,46,0)"
       y1="150.38"
       x1="123" />
    <linearGradient
       id="linearGradient5778"
       y2="143.36"
       xlink:href="#linearGradient5762"
       gradientUnits="userSpaceOnUse"
       x2="130.88"
       gradientTransform="translate(-210)"
       y1="134.36"
       x1="128" />
    <linearGradient
       id="linearGradient5798"
       y2="150.38"
       gradientUnits="userSpaceOnUse"
       y1="150.38"
       gradientTransform="matrix(-2 0 0 1.7699 174 -86.65)"
       x2="133"
       x1="123">
      <stop
         id="stop5764-6"
         stop-color="#2d3335"
         offset="0" />
      <stop
         id="stop5770-3"
         stop-color="#4c464a"
         offset=".5" />
      <stop
         id="stop5766-6"
         stop-color="#384042"
         offset="1" />
    </linearGradient>
    <linearGradient
       id="linearGradient5868"
       y2="186.5"
       gradientUnits="userSpaceOnUse"
       x2="136"
       gradientTransform="translate(-210)"
       y1="186.5"
       x1="120">
      <stop
         id="stop5864"
         stop-color="#f9e295"
         offset="0" />
      <stop
         id="stop5876"
         stop-color="#f7dd84"
         offset=".125" />
      <stop
         id="stop5874"
         stop-color="#fff"
         offset=".20581" />
      <stop
         id="stop5870"
         stop-color="#f4ce51"
         offset=".30113" />
      <stop
         id="stop5872"
         stop-color="#f9e7aa"
         offset=".34120" />
      <stop
         id="stop5866"
         stop-color="#efbb0e"
         offset="1" />
    </linearGradient>
    <linearGradient
       id="linearGradient5899"
       y2="186.5"
       gradientUnits="userSpaceOnUse"
       y1="186.5"
       gradientTransform="translate(-210,67)"
       x2="136"
       x1="120">
      <stop
         id="stop5864-0"
         stop-color="#f9e295"
         offset="0" />
      <stop
         id="stop5876-0"
         stop-color="#f7dd84"
         offset=".125" />
      <stop
         id="stop5874-6"
         stop-color="#fff"
         offset=".20581" />
      <stop
         id="stop5870-4"
         stop-color="#f4ce51"
         offset=".30113" />
      <stop
         id="stop5872-4"
         stop-color="#f9e7aa"
         offset=".34120" />
      <stop
         id="stop5866-3"
         stop-color="#efbb0e"
         offset="1" />
    </linearGradient>
    <linearGradient
       id="linearGradient6241"
       y2="186.5"
       gradientUnits="userSpaceOnUse"
       x2="136"
       gradientTransform="matrix(.98427 .98427 -.98427 .98427 66.992 -59.216)"
       y1="186.5"
       x1="120">
      <stop
         id="stop5864-0-0"
         stop-color="#f9e295"
         offset="0" />
      <stop
         id="stop5876-0-12"
         stop-color="#f7dd84"
         offset=".125" />
      <stop
         id="stop5874-6-6"
         stop-color="#fff"
         offset=".20581" />
      <stop
         id="stop5870-4-4"
         stop-color="#f4ce51"
         offset=".30113" />
      <stop
         id="stop5872-4-85"
         stop-color="#f9e7aa"
         offset=".34120" />
      <stop
         id="stop5866-3-62"
         stop-color="#efbb0e"
         offset="1" />
    </linearGradient>
    <linearGradient
       id="linearGradient6244"
       y2="150.38"
       gradientUnits="userSpaceOnUse"
       x2="133"
       gradientTransform="matrix(-1.9685 -1.9685 -1.7421 1.7421 596.19 167.51)"
       y1="150.38"
       x1="123">
      <stop
         id="stop5764-6-1"
         stop-color="#2d3335"
         offset="0" />
      <stop
         id="stop5770-3-6"
         stop-color="#4c464a"
         offset=".5" />
      <stop
         id="stop5766-6-3"
         stop-color="#384042"
         offset="1" />
    </linearGradient>
    <linearGradient
       id="linearGradient6247"
       y2="186.5"
       gradientUnits="userSpaceOnUse"
       x2="136"
       gradientTransform="matrix(.98427 .98427 -.98427 .98427 132.94 -125.16)"
       y1="186.5"
       x1="120">
      <stop
         id="stop5864-8"
         stop-color="#f9e295"
         offset="0" />
      <stop
         id="stop5876-09"
         stop-color="#f7dd84"
         offset=".125" />
      <stop
         id="stop5874-2"
         stop-color="#fff"
         offset=".20581" />
      <stop
         id="stop5870-3"
         stop-color="#f4ce51"
         offset=".30113" />
      <stop
         id="stop5872-1"
         stop-color="#f9e7aa"
         offset=".34120" />
      <stop
         id="stop5866-8"
         stop-color="#efbb0e"
         offset="1" />
    </linearGradient>
    <linearGradient
       id="linearGradient6250"
       y2="150.38"
       xlink:href="#linearGradient5762"
       gradientUnits="userSpaceOnUse"
       x2="133"
       gradientTransform="matrix(-.98427 -.98427 -.98427 .98427 384.91 126.81)"
       y1="150.38"
       x1="123" />
    <linearGradient
       id="linearGradient6253"
       y2="143.36"
       xlink:href="#linearGradient5762"
       gradientUnits="userSpaceOnUse"
       x2="130.88"
       gradientTransform="matrix(.98427 .98427 -.98427 .98427 132.94 -125.16)"
       y1="134.36"
       x1="128" />
    <radialGradient
       id="radialGradient6256"
       gradientUnits="userSpaceOnUse"
       cy="86"
       cx="128"
       gradientTransform="matrix(1.0052 1.0052 1.0052 -1.0052 -40.838 43.253)"
       r="47">
      <stop
         id="stop5747-3"
         stop-color="#d0e9f2"
         stop-opacity="0"
         offset="0" />
      <stop
         id="stop5753-6"
         stop-color="#d0e9f2"
         stop-opacity="0"
         offset=".83933" />
      <stop
         id="stop5755-9"
         stop-color="#d0e9f2"
         stop-opacity=".28185"
         offset=".94309" />
      <stop
         id="stop5749-0"
         stop-color="#d0e9f2"
         offset="1" />
    </radialGradient>
    <linearGradient
       id="linearGradient6279"
       y2="150.38"
       xlink:href="#linearGradient4680"
       gradientUnits="userSpaceOnUse"
       y1="167.73"
       gradientTransform="matrix(-1.9685 -1.9685 -1.7421 1.7421 596.19 167.51)"
       x2="133"
       x1="108" />
    <radialGradient
       id="radialGradient6427"
       gradientUnits="userSpaceOnUse"
       cy="72.588"
       cx="159.61"
       gradientTransform="matrix(1.2125 0 0 .83915 -46.348 24.528)"
       r="38.417">
      <stop
         id="stop6848"
         stop-color="#fff"
         offset="0" />
      <stop
         id="stop6852"
         stop-color="#fff"
         stop-opacity=".93050"
         offset=".5" />
      <stop
         id="stop6850"
         stop-color="#fff"
         stop-opacity="0"
         offset="1" />
    </radialGradient>
    <radialGradient
       id="radialGradient6482"
       gradientUnits="userSpaceOnUse"
       cx="159.61"
       cy="72.588"
       r="38.417"
       gradientTransform="matrix(1.2125 0 0 .83915 -45.92 25.814)">
      <stop
         id="stop4746-3-8"
         stop-color="#fff"
         offset="0" />
      <stop
         id="stop4748-8-3"
         stop-color="#fff"
         stop-opacity="0"
         offset="1" />
    </radialGradient>
    <linearGradient
       id="linearGradient6595"
       y2="137.2"
       gradientUnits="userSpaceOnUse"
       x2="179.96"
       gradientTransform="translate(0,-10)"
       y1="29.815"
       x1="126.64">
      <stop
         id="stop6591"
         stop-color="#fff"
         offset="0" />
      <stop
         id="stop6593"
         stop-color="#fff"
         stop-opacity="0"
         offset="1" />
    </linearGradient>
    <linearGradient
       id="linearGradient6614"
       y2="137.2"
       gradientUnits="userSpaceOnUse"
       y1="29.815"
       gradientTransform="matrix(-.50295 .19840 .19720 -.43254 276.16 123.42)"
       x2="179.96"
       x1="126.64">
      <stop
         id="stop6591-6"
         stop-color="#fff"
         offset="0" />
      <stop
         id="stop6593-1"
         stop-color="#fff"
         stop-opacity="0"
         offset="1" />
    </linearGradient>
    <filter
       id="filter7286">
      <feGaussianBlur
         id="feGaussianBlur7288"
         stdDeviation="4.2868936" />
    </filter>
    <clipPath
       id="clipPath5466-2-3"
       clipPathUnits="userSpaceOnUse">
      <path
         id="path5468-3-2"
         fill="#ceeeab"
         d="m9 12.25s7.5 13 11.75 27.75 6.25 25.5 6.25 25.5-5.5 12.75-8.25 24.75-5.75 23-5.75 23 5.75 16 9.25 30 3.75 24.25 3.75 24.25-4 10.25-7.5 24.25-5 30.75-5 30.75 9.25-2 28.5 1.25 32.25 6 32.25 6 12.75-2.75 24-6.25 16.25-6.5 16.25-6.5 5.5 0.5 22.5 6.25 29.25 8.5 29.25 8.5 13-2.75 26-5.75 26.5-8 26.5-8-0.75-5 4.25-24.5 8.75-28 8.75-28-0.5-4.5-3.75-19.75-10-29.75-10-29.75 1.75-10.5 6.75-23.75 10.25-26.75 10.25-26.75-4.75-15.25-7.5-29.75-8.25-25.75-8.25-25.75-24.25 9-31.75 10.5-21 5.25-21 5.25-9.75-4.25-22-8.5-29.75-5.5-29.75-5.5-3.25 3.5-22 8-27.5 5.75-27.5 5.75-18.5-9-31.5-11.5-24-2-24.75-1.75z" />
    </clipPath>
    <clipPath
       id="clipPath5383-0-0"
       clipPathUnits="userSpaceOnUse">
      <path
         id="path5385-7-8"
         fill="#ceeeab"
         d="m9 12.25s7.5 13 11.75 27.75 6.25 25.5 6.25 25.5-5.5 12.75-8.25 24.75-5.75 23-5.75 23 5.75 16 9.25 30 3.75 24.25 3.75 24.25-4 10.25-7.5 24.25-5 30.75-5 30.75 9.25-2 28.5 1.25 32.25 6 32.25 6 12.75-2.75 24-6.25 16.25-6.5 16.25-6.5 5.5 0.5 22.5 6.25 29.25 8.5 29.25 8.5 13-2.75 26-5.75 26.5-8 26.5-8-0.75-5 4.25-24.5 8.75-28 8.75-28-0.5-4.5-3.75-19.75-10-29.75-10-29.75 1.75-10.5 6.75-23.75 10.25-26.75 10.25-26.75-4.75-15.25-7.5-29.75-8.25-25.75-8.25-25.75-24.25 9-31.75 10.5-21 5.25-21 5.25-9.75-4.25-22-8.5-29.75-5.5-29.75-5.5-3.25 3.5-22 8-27.5 5.75-27.5 5.75-18.5-9-31.5-11.5-24-2-24.75-1.75z" />
    </clipPath>
    <clipPath
       id="clipPath5426-1-6"
       clipPathUnits="userSpaceOnUse">
      <path
         id="path5428-0-9"
         fill="#ceeeab"
         d="m9 12.25s7.5 13 11.75 27.75 6.25 25.5 6.25 25.5-5.5 12.75-8.25 24.75-5.75 23-5.75 23 5.75 16 9.25 30 3.75 24.25 3.75 24.25-4 10.25-7.5 24.25-5 30.75-5 30.75 9.25-2 28.5 1.25 32.25 6 32.25 6 12.75-2.75 24-6.25 16.25-6.5 16.25-6.5 5.5 0.5 22.5 6.25 29.25 8.5 29.25 8.5 13-2.75 26-5.75 26.5-8 26.5-8-0.75-5 4.25-24.5 8.75-28 8.75-28-0.5-4.5-3.75-19.75-10-29.75-10-29.75 1.75-10.5 6.75-23.75 10.25-26.75 10.25-26.75-4.75-15.25-7.5-29.75-8.25-25.75-8.25-25.75-24.25 9-31.75 10.5-21 5.25-21 5.25-9.75-4.25-22-8.5-29.75-5.5-29.75-5.5-3.25 3.5-22 8-27.5 5.75-27.5 5.75-18.5-9-31.5-11.5-24-2-24.75-1.75z" />
    </clipPath>
    <linearGradient
       id="linearGradient5168-2-9"
       y2="-213.25"
       gradientUnits="userSpaceOnUse"
       x2="9"
       gradientTransform="translate(0,192)"
       y1="72.064"
       x1="210.17">
      <stop
         id="stop4682-27-3"
         offset="0" />
      <stop
         id="stop4684-36-5"
         stop-opacity="0"
         offset="1" />
    </linearGradient>
    <clipPath
       id="clipPath8617"
       clipPathUnits="userSpaceOnUse">
      <path
         id="path8619"
         d="m123.62 141.06c20.832 20.243 54.607 19.289 75.439-2.132s20.832-55.196 0-75.439-54.607-19.289-75.439 2.132-20.832 55.196 0 75.439z"
         fill="url(#radialGradient8621)" />
    </clipPath>
    <radialGradient
       id="radialGradient8621"
       gradientUnits="userSpaceOnUse"
       cy="86"
       cx="128"
       gradientTransform="matrix(.80254 .77986 .80254 -.82522 -10.402 73.423)"
       r="47">
      <stop
         id="stop5747-3-73"
         stop-color="#d0e9f2"
         stop-opacity="0"
         offset="0" />
      <stop
         id="stop5753-6-08"
         stop-color="#d0e9f2"
         stop-opacity="0"
         offset=".83933" />
      <stop
         id="stop5755-9-5"
         stop-color="#d0e9f2"
         stop-opacity=".28185"
         offset=".94309" />
      <stop
         id="stop5749-0-4"
         stop-color="#d0e9f2"
         offset="1" />
    </radialGradient>
    <filter
       id="filter8661">
      <feGaussianBlur
         id="feGaussianBlur8663"
         stdDeviation="6.3109704" />
    </filter>
    <filter
       id="filter8725">
      <feGaussianBlur
         id="feGaussianBlur8727"
         stdDeviation="4.4575" />
    </filter>
    <linearGradient
       id="linearGradient8735"
       y2="4.302"
       gradientUnits="userSpaceOnUse"
       x2="122"
       y1="245.45"
       x1="122">
      <stop
         id="stop8731"
         offset="0" />
      <stop
         id="stop8733"
         stop-opacity="0"
         offset="1" />
    </linearGradient>
    <clipPath
       id="clipPath8750"
       clipPathUnits="userSpaceOnUse">
      <path
         id="path8752"
         opacity=".039130"
         d="m9 22.578s7.5 12.393 11.75 26.8c4.25 14.406 6.25 24.995 6.25 24.995s-5.5 13.195-8.25 25.417c-2.75 12.22-5.75 23.46-5.75 23.46s5.75 15.535 9.25 29.252 3.75 23.947 3.75 23.947-4 10.574-7.5 24.857-5 31.154-5 31.154 9.25-2.7481 28.5-1.055 32.25 3.3917 32.25 3.3917 12.75-3.7812 24-8.1911 16.25-7.8143 16.25-7.8143 5.5 0.0552 22.5 4.4302c17 4.3751 29.25 6.1343 29.25 6.1343s13-3.8014 26-7.8528 26.5-10.143 26.5-10.143-0.75-4.9393 4.25-24.844c5-19.904 8.75-28.708 8.75-28.708s-0.5145-4.4553-3.75-19.447c-1.75-8.1085-2.25-4.068-2.25-4.068s16.264-26.155 16.5-40.334c0.25-15.02-7.25-36.413-7.25-36.413s-4.75-14.866-7.5-29.143c-2.75-14.278-8.25-25.083-8.25-25.083s-24.25 10.961-31.75 13.068c-7.5 2.1066-21 6.9484-21 6.9484s-9.75-3.4614-22-6.7207c-12.25-3.2592-29.75-3.0939-29.75-3.0939s-3.25 3.7629-22 9.7793c-18.75 6.0165-27.5 7.9741-27.5 7.9741s-18.5-7.5038-31.5-8.9524-24-0.05894-24.75 0.25172z"
         fill="url(#linearGradient8754)" />
    </clipPath>
    <linearGradient
       id="linearGradient8754"
       y2="-213.25"
       gradientUnits="userSpaceOnUse"
       x2="9"
       gradientTransform="matrix(1 -.080878 0 1 0 203.06)"
       y1="72.064"
       x1="210.17">
      <stop
         id="stop4682-9"
         offset="0" />
      <stop
         id="stop4684-38"
         stop-opacity="0"
         offset="1" />
    </linearGradient>
    <linearGradient
       id="SVGID_1_"
       gradientUnits="userSpaceOnUse"
       x1="0.80369997"
       y1="792.24438"
       x2="0.97729999"
       y2="792.24438"
       gradientTransform="matrix(432,0,0,460.8,-333.8,-365010.22)">
      <stop
         offset="0"
         style="stop-color:#656565"
         id="stop10" />
      <stop
         offset="1"
         style="stop-color:#010101"
         id="stop12" />
    </linearGradient>
    <linearGradient
       id="SVGID_2_"
       gradientUnits="userSpaceOnUse"
       x1="0.80369997"
       y1="791.83118"
       x2="0.97729999"
       y2="791.83118"
       gradientTransform="matrix(432,0,0,460.8,-333.8,-364779.81)">
      <stop
         offset="0"
         style="stop-color:#656565"
         id="stop17" />
      <stop
         offset="1"
         style="stop-color:#010101"
         id="stop19" />
    </linearGradient>
    <linearGradient
       id="SVGID_3_"
       gradientUnits="userSpaceOnUse"
       x1="0.80369997"
       y1="792.92401"
       x2="0.97729999"
       y2="792.92401"
       gradientTransform="matrix(432,0,0,-460.8,-333.8,365415.41)">
      <stop
         offset="0"
         style="stop-color:#9F1C20"
         id="stop24" />
      <stop
         offset="1"
         style="stop-color:#ED2224"
         id="stop26" />
    </linearGradient>
    <linearGradient
       id="SVGID_4_"
       gradientUnits="userSpaceOnUse"
       x1="0.80369997"
       y1="793.33722"
       x2="0.97729999"
       y2="793.33722"
       gradientTransform="matrix(432,0,0,-460.8,-333.8,365645.81)">
      <stop
         offset="0"
         style="stop-color:#9F1C20"
         id="stop31" />
      <stop
         offset="1"
         style="stop-color:#ED2224"
         id="stop33" />
    </linearGradient>
    <linearGradient
       id="SVGID_5_"
       gradientUnits="userSpaceOnUse"
       x1="0.80369997"
       y1="793.75049"
       x2="0.97729999"
       y2="793.75049"
       gradientTransform="matrix(432,0,0,-460.8,-333.8,365876.22)">
      <stop
         offset="0"
         style="stop-color:#9F1C20"
         id="stop38" />
      <stop
         offset="1"
         style="stop-color:#ED2224"
         id="stop40" />
    </linearGradient>
  </defs>
  <metadata
     id="metadata3043">
    <rdf:RDF>
      <cc:Work
         rdf:about="">
        <dc:format>image/svg+xml</dc:format>
        <dc:type
           rdf:resource="http://purl.org/dc/dcmitype/StillImage" />
        <dc:title />
      </cc:Work>
    </rdf:RDF>
  </metadata>
  <g
     id="g4556"
     transform="translate(-7.6423078,-4.9997376)">
    <g
       transform="matrix(0.75210527,0,0,0.75210527,38.933716,48.81356)"
       id="layer8">
      <g
         transform="translate(0,-10)"
         id="g8737">
        <path
           style="opacity:0.7;fill:#2d3335;filter:url(#filter8661)"
           inkscape:connector-curvature="0"
           transform="matrix(1,0.068641,0,0.8487,-6.6011e-8,36.913)"
           d="m 174.28,35.875 c -17.6,0 -35.19,6.639 -48.72,19.906 -0.16,0.164 -0.33,0.303 -0.5,0.469 -22.05,22.056 -26.206,55.25 -12.47,81.5 l -2.28,1.63 c 2.25,4.23 4.94,8.3 8.1,12.12 l -13.32,13.34 c -1.34,-0.58 -2.78,-1.03 -4.56,-1.37 l -2.842,2.84 c -1.11,-0.48 -2.139,-0.81 -3.063,-0.87 L 30.5,229.56 c -0.037,1.1 0.226,2.19 0.656,3.28 l -0.531,0.54 -1.094,1.09 c 0.716,3.74 2.011,6.82 5.469,10.28 3.458,3.46 6.42,4.63 10.281,5.47 l 1.094,-1.1 0.719,-0.71 c 1.088,0.46 2.13,0.78 3.094,0.84 l 64.122,-64.13 c -0.24,-0.97 -0.62,-1.93 -1.03,-2.9 l 3,-3 c -0.25,-1.73 -0.68,-3.2 -1.31,-4.6 l 13.28,-13.28 c 3.82,3.16 7.89,5.85 12.13,8.1 l 1.62,-2.28 c 26.25,13.74 59.44,9.58 81.5,-12.47 0.17,-0.17 0.31,-0.34 0.47,-0.5 C 250.66,126.97 250.52,83.267 223.5,56.25 209.91,42.66 192.09,35.875 174.28,35.875 Z m -0.5,3.281 c 0.11,0.002 0.21,-0.002 0.31,0 0.95,0.019 1.9,0.066 2.85,0.125 0.96,0.061 1.92,0.148 2.87,0.25 0.1,0.01 0.19,0.021 0.28,0.031 0.1,0.011 0.19,0.021 0.29,0.032 0.14,0.017 0.29,0.044 0.43,0.062 0.9,0.11 1.8,0.228 2.69,0.375 0.62,0.102 1.23,0.224 1.84,0.344 0.35,0.066 0.69,0.116 1.04,0.187 0.72,0.153 1.43,0.324 2.15,0.5 0.31,0.077 0.63,0.138 0.94,0.219 0.07,0.019 0.14,0.043 0.22,0.063 0.95,0.253 1.89,0.516 2.84,0.812 0.07,0.023 0.15,0.04 0.22,0.063 0.95,0.3 1.91,0.625 2.84,0.969 0.06,0.019 0.11,0.042 0.16,0.062 0.95,0.352 1.9,0.728 2.84,1.125 0.06,0.022 0.11,0.041 0.16,0.063 0.94,0.4 1.88,0.836 2.81,1.281 0.04,0.02 0.09,0.042 0.13,0.062 0.93,0.451 1.86,0.91 2.78,1.407 0.03,0.017 0.06,0.044 0.09,0.062 0.93,0.503 1.84,1.013 2.75,1.562 0.03,0.02 0.06,0.044 0.1,0.063 0.9,0.551 1.8,1.122 2.68,1.719 0.55,0.369 1.09,0.769 1.63,1.156 0.36,0.261 0.73,0.512 1.09,0.781 0.02,0.014 0.05,0.018 0.06,0.031 0.88,0.656 1.75,1.36 2.6,2.063 1.74,1.434 3.43,2.963 5.06,4.594 1.62,1.62 3.14,3.3 4.56,5.031 0.01,0.011 0.03,0.02 0.03,0.031 0.71,0.855 1.41,1.715 2.07,2.594 0.28,0.379 0.54,0.773 0.81,1.156 0.37,0.517 0.74,1.038 1.09,1.563 0.02,0.024 0.05,0.038 0.07,0.062 0.59,0.89 1.16,1.778 1.71,2.688 0.02,0.032 0.05,0.061 0.07,0.094 0.54,0.902 1.06,1.829 1.56,2.75 0.02,0.032 0.04,0.06 0.06,0.093 0.5,0.921 0.96,1.844 1.41,2.781 l 0.06,0.126 c 0.45,0.929 0.88,1.868 1.28,2.812 0.02,0.051 0.04,0.105 0.06,0.156 0.4,0.936 0.78,1.895 1.13,2.844 0.02,0.053 0.04,0.104 0.06,0.156 0.35,0.949 0.67,1.885 0.97,2.844 0.02,0.072 0.04,0.147 0.06,0.219 0.3,0.941 0.56,1.894 0.82,2.843 0.02,0.074 0.04,0.146 0.06,0.219 0.08,0.31 0.14,0.627 0.22,0.938 0.17,0.72 0.35,1.432 0.5,2.156 0.07,0.342 0.12,0.688 0.18,1.031 0.12,0.617 0.25,1.225 0.35,1.844 0.15,0.893 0.26,1.791 0.37,2.688 0.02,0.145 0.05,0.291 0.07,0.437 0.01,0.093 0.02,0.188 0.03,0.281 0.01,0.094 0.02,0.187 0.03,0.282 0.1,0.952 0.19,1.912 0.25,2.872 0.06,0.94 0.11,1.9 0.12,2.85 0.01,0.1 0,0.2 0,0.31 0.02,1.05 0.01,2.1 -0.03,3.15 -0.03,0.94 -0.08,1.86 -0.15,2.79 -0.01,0.12 -0.02,0.25 -0.04,0.37 -0.07,0.92 -0.16,1.84 -0.28,2.75 -0.12,0.96 -0.27,1.93 -0.43,2.88 -0.02,0.08 -0.02,0.16 -0.04,0.25 -0.02,0.12 -0.03,0.25 -0.06,0.37 -0.16,0.91 -0.36,1.82 -0.56,2.72 -0.03,0.13 -0.06,0.27 -0.09,0.41 -0.21,0.88 -0.45,1.77 -0.69,2.65 -0.17,0.59 -0.35,1.17 -0.53,1.75 -0.18,0.57 -0.34,1.13 -0.53,1.69 -0.3,0.86 -0.61,1.71 -0.94,2.56 -0.06,0.16 -0.13,0.32 -0.19,0.47 -0.04,0.11 -0.08,0.23 -0.12,0.34 -0.36,0.88 -0.73,1.73 -1.13,2.6 -0.38,0.82 -0.77,1.63 -1.19,2.44 -0.08,0.15 -0.16,0.31 -0.25,0.46 -0.41,0.8 -0.83,1.6 -1.28,2.38 -0.09,0.17 -0.18,0.34 -0.28,0.5 -0.2,0.34 -0.42,0.66 -0.62,1 -0.37,0.59 -0.75,1.17 -1.13,1.75 0,0.01 0.01,0.02 0,0.03 -0.49,0.75 -1,1.49 -1.53,2.22 -0.46,0.64 -0.95,1.25 -1.44,1.87 -0.19,0.26 -0.36,0.53 -0.56,0.79 -0.13,0.16 -0.27,0.33 -0.41,0.5 -0.16,0.2 -0.33,0.39 -0.5,0.59 -0.55,0.67 -1.13,1.32 -1.72,1.97 -0.6,0.67 -1.23,1.35 -1.87,2 -0.16,0.16 -0.31,0.34 -0.47,0.5 -21.13,21.13 -52.26,24.49 -77.19,11.15 l 0.13,-0.18 c -3.71,-1.9 -7.26,-4.14 -10.63,-6.78 -0.54,-0.43 -1.06,-0.87 -1.59,-1.32 -0.51,-0.43 -1.03,-0.86 -1.53,-1.31 -0.09,-0.08 -0.19,-0.16 -0.28,-0.25 -0.82,-0.75 -1.61,-1.52 -2.41,-2.31 -0.79,-0.8 -1.56,-1.59 -2.31,-2.41 -0.09,-0.09 -0.17,-0.19 -0.25,-0.28 -0.45,-0.5 -0.88,-1.02 -1.31,-1.53 -0.45,-0.53 -0.89,-1.05 -1.32,-1.59 -2.64,-3.37 -4.88,-6.92 -6.78,-10.63 l -0.19,0.13 c -13.33,-24.93 -9.97,-56.061 11.16,-77.191 0.16,-0.163 0.34,-0.308 0.5,-0.469 0.65,-0.64 1.33,-1.269 2,-1.875 0.65,-0.588 1.3,-1.162 1.97,-1.719 0.27,-0.227 0.54,-0.465 0.81,-0.687 0.35,-0.278 0.72,-0.512 1.06,-0.782 0.63,-0.483 1.24,-0.98 1.88,-1.437 0.74,-0.53 1.5,-1.036 2.25,-1.531 0.58,-0.383 1.16,-0.764 1.75,-1.125 0.45,-0.274 0.89,-0.551 1.34,-0.813 0.69,-0.395 1.37,-0.757 2.07,-1.125 0.17,-0.093 0.35,-0.189 0.53,-0.281 0.94,-0.491 1.88,-0.966 2.84,-1.406 0.87,-0.397 1.72,-0.769 2.59,-1.125 0.16,-0.062 0.32,-0.096 0.47,-0.157 0.97,-0.384 1.93,-0.758 2.91,-1.093 0.56,-0.192 1.12,-0.356 1.69,-0.532 0.58,-0.181 1.16,-0.367 1.75,-0.531 0.88,-0.246 1.77,-0.48 2.65,-0.687 0.07,-0.017 0.15,-0.015 0.22,-0.032 0.42,-0.095 0.84,-0.193 1.25,-0.281 0.67,-0.141 1.36,-0.287 2.03,-0.406 0.09,-0.015 0.17,-0.017 0.25,-0.031 0.95,-0.164 1.92,-0.317 2.88,-0.438 1.96,-0.247 3.93,-0.401 5.9,-0.469 1.06,-0.035 2.11,-0.046 3.16,-0.031 z"
           id="path5604-26-0-3" />
        <path
           inkscape:connector-curvature="0"
           style="opacity:0.5;fill:url(#linearGradient8735);filter:url(#filter8725)"
           transform="matrix(1,0,0,0.84657,0,37.66)"
           d="m 9,17.25 c 0,0 7.5,11 11.75,25.75 C 25,57.75 27,68.5 27,68.5 c 0,0 -5.5,12.75 -8.25,24.75 -2.75,12 -5.75,25 -5.75,25 0,0 5.75,16 9.25,30 3.5,14 3.75,22.25 3.75,22.25 0,0 -4,10.25 -7.5,24.25 -3.5,14 -5,30.75 -5,30.75 0,0 9.25,-2 28.5,1.25 19.25,3.25 32.25,6 32.25,6 0,0 12.75,-2.75 24,-6.25 11.25,-3.5 16.25,-6.5 16.25,-6.5 0,0 5.5,0.5 22.5,6.25 17,5.75 29.25,8.5 29.25,8.5 0,0 13,-2.75 26,-5.75 13,-3 26.5,-8 26.5,-8 0,0 -0.75,-5 4.25,-24.5 5,-19.5 8.75,-28 8.75,-28 0,0 -0.5,-2.5 -3.75,-17.75 C 224.75,135.5 218,121 218,121 c 0,0 1.75,-12.5 6.75,-25.75 C 229.75,82 235,68.5 235,68.5 c 0,0 -4.75,-15.25 -7.5,-29.75 C 224.75,24.25 219.25,15 219.25,15 c 0,0 -24.25,9 -31.75,10.5 -7.5,1.5 -21,5.25 -21,5.25 0,0 -9.75,-4.25 -22,-8.5 -12.25,-4.25 -29.75,-5.5 -29.75,-5.5 0,0 -3.25,3.5 -22,8 -18.75,4.5 -27.5,5.75 -27.5,5.75 0,0 -18.5,-9 -31.5,-11.5 -13,-2.5 -24,-2 -24.75,-1.75 z"
           id="path3834-49-7" />
      </g>
    </g>
    <g
       transform="matrix(0.75210527,0,0,0.75210527,38.933716,48.81356)"
       id="layer4">
      <path
         style="fill:#ceeeab"
         inkscape:connector-curvature="0"
         d="m 9,2.25 c 0,0 7.5,13 11.75,27.75 C 25,44.75 27,55.5 27,55.5 c 0,0 -5.5,12.75 -8.25,24.75 -2.75,12 -5.75,23 -5.75,23 0,0 5.75,16 9.25,30 3.5,14 3.75,24.25 3.75,24.25 0,0 -4,10.25 -7.5,24.25 -3.5,14 -5,30.75 -5,30.75 0,0 9.25,-2 28.5,1.25 19.25,3.25 32.25,6 32.25,6 0,0 12.75,-2.75 24,-6.25 11.25,-3.5 16.25,-6.5 16.25,-6.5 0,0 5.5,0.5 22.5,6.25 17,5.75 29.25,8.5 29.25,8.5 0,0 13,-2.75 26,-5.75 13,-3 26.5,-8 26.5,-8 0,0 -0.75,-5 4.25,-24.5 5,-19.5 8.75,-28 8.75,-28 0,0 -0.5,-4.5 -3.75,-19.75 C 224.75,120.5 218,106 218,106 c 0,0 1.75,-10.5 6.75,-23.75 C 229.75,69 235,55.5 235,55.5 c 0,0 -4.75,-15.25 -7.5,-29.75 C 224.75,11.25 219.25,0 219.25,0 c 0,0 -24.25,9 -31.75,10.5 -7.5,1.5 -21,5.25 -21,5.25 0,0 -9.75,-4.25 -22,-8.5 -12.25,-4.25 -29.75,-5.5 -29.75,-5.5 0,0 -3.25,3.5 -22,8 -18.75,4.5 -27.5,5.75 -27.5,5.75 0,0 -18.5,-9 -31.5,-11.5 C 20.75,1.5 9.75,2 9,2.25 Z"
         id="path3834-9" />
      <g
         clip-path="url(#clipPath5466)"
         transform="translate(0,-10)"
         id="g5438">
        <path
           style="fill:#a6dd8b"
           inkscape:connector-curvature="0"
           d="m 110.75,5.5 -4.25,7 c -0.75,9 -2.25,13.75 -8.5,16.5 -6.25,2.75 -12.25,3.5 -11,7.5 1.25,4 13,9.25 14.25,13 1.25,3.75 8.25,1.75 11,7 2.75,5.25 2,15.25 -3.75,17.25 -5.75,2 -17.5,0.5 -20.25,9.5 -2.75,9 -4.75,10.5 -9,12.75 -4.25,2.25 -7.25,10.5 -3.5,16.5 3.75,6 12.25,-1.25 15,-6.5 C 93.5,100.75 98,97.25 98,97.25 l 23.75,0 59,-1.75 3.25,-3.75 c 0,0 3.25,4 2.75,8.75 -0.5,4.75 -3.75,14.75 0.25,17.25 4,2.5 19.5,-2 24,-7 4.5,-5 -4.75,-28.25 -10.5,-29.5 -5.75,-1.25 -18.5,-1.75 -17,-7 1.5,-5.25 11.75,4.5 17.25,3.25 5.5,-1.25 16.75,-21 12,-25.25 C 208,48 188.5,47 187,44.25 c -1.5,-2.75 21,-8 22.25,-11 1.25,-3 -2.5,-7.25 -6.25,-8.5 C 199.25,23.5 189,41 182,40.5 175,40 162,46.25 164.75,52 c 2.75,5.75 -6,11 -14.5,6.5 -8.5,-4.5 -24.75,-13 -21.75,-24 3,-11 21.5,-18.75 21.5,-18.75 L 110.75,5.5 Z M 97.188,112.72 c -1.595,0.15 -4.469,4.69 -4.938,7.03 -0.5,2.5 -3.25,6.75 -3.5,12.25 -0.25,5.5 4.75,6.75 8.75,6.5 4,-0.25 2.75,-6.75 2,-15 -0.25,0 -0.5,-10.25 -2,-10.75 -0.094,-0.03 -0.206,-0.04 -0.312,-0.03 z m 92.722,51.66 c -6.34,0.29 -6.63,7.46 -7.41,8.87 -1.25,2.25 2.25,13.75 2,18 -0.25,4.25 -4.75,5.25 -9.5,9.75 -4.75,4.5 0.5,16 11.25,31 l 44.75,1.25 -1,-35 c 0,0 4.75,-4.25 -20.75,-24.25 -9.56,-7.5 -15.54,-9.8 -19.34,-9.62 z M 39.94,180.91 c -4.03,-0.11 -8.282,5.71 -9.688,7.59 -1.5,2 -6.25,5 -17,9.5 l -14.5,34.25 53,4.25 c 0,0 1.75,-11 -4.25,-15.75 -6,-4.75 -17.25,-5.75 -18.25,-13.25 -1,-7.5 9.25,-10 13.75,-14.25 4.5,-4.25 2,-11.25 -2.25,-12.25 -0.266,-0.06 -0.544,-0.09 -0.812,-0.09 z"
           id="path5436" />
      </g>
      <path
         style="fill:#aac3e7"
         inkscape:connector-curvature="0"
         d="m 158.53,75.344 c -4.76,-0.015 -9.03,0.968 -11.53,3.156 -8,7 -35,0.75 -48.5,7 -13.5,6.25 -13.25,38 -14.75,44.5 -1.5,6.5 -17.5,20.75 -20,23.5 -2.5,2.75 -13.25,7.25 -19.5,8.5 -6.25,1.25 -12.75,7.25 -15.5,11 -2.021,2.76 -7.406,6.45 -10.125,8.22 -0.046,0.18 -0.079,0.35 -0.125,0.53 -0.134,0.53 -0.247,1.08 -0.375,1.63 4.98,-1.61 11.18,-8.18 16.625,-13.63 6.25,-6.25 20,-7.75 27.75,-11.5 7.75,-3.75 14.25,-19.75 26.5,-23.75 12.25,-4 21.25,11.75 24.25,18.5 3,6.75 1.75,12.75 3.75,17 2,4.25 11,11.75 11.5,13.5 0.5,1.75 -5,6.5 -6.25,8.5 -1.25,2 -10.5,7 -11.75,8.75 -0.97,1.35 -1.92,6.77 -2.31,9.22 0.41,-0.17 0.75,-0.31 1.12,-0.47 0.49,-2.53 1.52,-7.08 2.94,-8.5 2,-2 11.25,-4.5 12.5,-8.5 1.25,-4 7,-6.5 7,-6.5 0,0 2.75,4 16,14 8.83,6.67 12.76,15.53 14.41,20.72 0.67,0.17 1.53,0.41 2.03,0.53 -1.22,-4.32 -4.84,-16.24 -8.94,-20.75 -5,-5.5 -18.5,-10.75 -22.75,-22 -4.25,-11.25 -24.5,-34.25 -17.5,-40.25 7,-6 16.5,-4 28.5,7.5 12,11.5 46.25,5.75 57.75,3.75 9.95,-1.73 20.83,14.88 23.91,26.03 0.59,-2.09 1.12,-4 1.65,-5.75 -1.74,-1.92 -3.69,-4.62 -5.31,-8.28 -3.75,-8.5 -12,-13.25 -12,-13.25 0,0 8.75,-5 14.75,-7.75 1.62,-0.74 3.01,-1.68 4.19,-2.66 -0.16,-0.77 -0.26,-1.25 -0.44,-2.09 -0.03,-0.15 -0.06,-0.29 -0.09,-0.44 -4.77,5.56 -19.24,9.62 -21.66,10.94 -2.75,1.5 -18.25,3 -35.75,4.5 -17.5,1.5 -26.75,-7.5 -34.25,-14.75 -7.5,-7.25 -13,-36 -3,-38 10,-2 20,13.75 30,17 10,3.25 21.5,-15.75 19.75,-27 -1.2,-7.734 -14,-12.625 -24.47,-12.656 z m -53.34,13.281 c 1.27,0.001 5.86,1.594 6.56,2.375 2.25,2.5 2,7.25 0,8 -2,0.75 -12.75,8 -10.5,14.25 2.25,6.25 1.75,18 -3.5,18 -5.25,0 -8,0 -10,-2.5 -2,-2.5 -2,-12 0,-19.75 2,-7.75 3.5,-15 8,-18.25 3.094,-2.234 6.63,-2.128 9.44,-2.125 z m 13.59,73.095 c 0.2,0.01 1.91,3.51 4.72,7.03 3,3.75 3.25,8.25 3.25,8.25 0,0 -4.25,-4.75 -6,-8 -1.75,-3.25 -2,-7.25 -2,-7.25 0,-0.03 0.02,-0.03 0.03,-0.03 z"
         id="path5280" />
      <path
         style="opacity:0.38696002;fill:none;stroke:#6d7f42;stroke-linecap:round;stroke-linejoin:round"
         inkscape:connector-curvature="0"
         d="M 122.75,62.25 C 129,62.75 135,60 133.5,55.75 132,51.5 121,48.5 120.25,52.75 c -0.75,4.25 2,10.5 2.5,9.5 z"
         id="path5319" />
      <path
         style="opacity:0.38696002;fill:none;stroke:#6d7f42;stroke-linecap:round;stroke-linejoin:round"
         inkscape:connector-curvature="0"
         d="m 108.75,46.75 c -8.5,-5.5 -8.5,-7.25 -7,-8 1.5,-0.75 10.25,5 12.75,8 2.5,3 -2.25,2 -5.75,0 z"
         id="path5321" />
      <g
         style="fill:none;stroke:#6d7f42"
         transform="translate(0,-10)"
         clip-path="url(#clipPath5383)"
         id="g5373">
        <path
           style="opacity:0.38696002;stroke-linecap:round;stroke-linejoin:round"
           inkscape:connector-curvature="0"
           d="M 15.75,151.25 C 48.75,148.75 54,147.75 52,141 50,134.25 43.25,117.5 29,118.5 14.75,119.5 6.25,111.75 6.25,111.75"
           id="path5323" />
        <path
           style="opacity:0.38696002"
           inkscape:connector-curvature="0"
           d="m 17.5,177.25 c 18.25,-10 28.75,-8.5 35,-11.5 6.25,-3 13.25,-5.75 15.75,-9.5 2.5,-3.75 5.75,-11.5 5.75,-18 0,-6.5 -3.5,-36 3.25,-43.5 6.75,-7.5 17.25,-26 26,-23.25 8.75,2.75 12.25,9.75 22,9.5 9.75,-0.25 21.75,-4 24.25,-12.25 2.5,-8.25 -15.75,-16 -16,-23 -0.25,-7 5.5,-14.25 20.25,-17 14.75,-2.75 23.5,-11.5 23.5,-11.5"
           id="path5311" />
        <path
           style="opacity:0.38696002;stroke-linecap:round;stroke-linejoin:round"
           inkscape:connector-curvature="0"
           d="m 14.5,161 c 15.25,-1.5 22.25,3.5 31.5,1.75 9.25,-1.75 13.25,-3 17.75,-5.75 4.5,-2.75 6,-3.75 6.25,-6.5 0.25,-2.75 1,-12.5 -3,-22 C 63,119 54.5,97 58.75,89.75 63,82.5 64,68.25 74.5,65.25 85,62.25 95.5,59 102.25,64 c 6.75,5 12.75,14.25 20,14.5 7.25,0.25 11.75,-1.5 14.5,-4.5 2.75,-3 4.5,-10.25 1.75,-13.75 -2.75,-3.5 -15.5,-5.5 -17.25,-9.5 -1.75,-4 -10.75,-17 -0.25,-26.75 10.5,-9.75 36.25,-8.25 36.25,-8.25"
           id="path5313" />
        <path
           style="opacity:0.38696002;stroke-linecap:round;stroke-linejoin:round"
           inkscape:connector-curvature="0"
           d="m 21.25,159 c 13.75,1 21.5,4.25 33.5,-0.5 12,-4.75 13.5,-5.25 13.75,-8.75 0.25,-3.5 -0.25,-15.75 -3,-20 C 62.75,125.5 52.5,116 49.75,105.5 47,95 50,64.5 58.25,57.25 66.5,50 90.25,50 95.75,46.75 101.25,43.5 101,30 108.75,22.25 116.5,14.5 135.75,10 135.75,10"
           id="path5315" />
        <path
           style="opacity:0.38696002;stroke-linecap:round;stroke-linejoin:round"
           inkscape:connector-curvature="0"
           d="m 190,18.5 c 11.75,5 39,9.75 47.25,40.25"
           id="path5317" />
        <path
           style="opacity:0.38696002;stroke-linecap:round;stroke-linejoin:round"
           inkscape:connector-curvature="0"
           d="m 9.75,214 c 19,-12.5 36,-1.25 49,-4 13,-2.75 38.25,-37.25 46,-37 7.75,0.25 5.5,-11.75 8.5,-13.25 3,-1.5 5.5,6 11.75,8 6.25,2 24.5,-2.75 23.5,-5.75 -1,-3 -7,-7.75 -5.5,-8.5 1.5,-0.75 8.5,5 12.75,3.5 4.25,-1.5 43.75,-1 48.5,-13.5 C 209,131 225.75,130 225.75,130"
           id="path5325" />
        <path
           style="opacity:0.38696002;stroke-linecap:round;stroke-linejoin:round"
           inkscape:connector-curvature="0"
           d="m 77.5,233.5 c 13.5,-11.5 23.25,-25 28.5,-27 5.25,-2 12.75,-3.75 15.75,-8 3,-4.25 2.5,-10.75 5.25,-12 2.75,-1.25 3.75,5.75 8.75,6 5,0.25 36.75,-5 42.75,-11.75 6,-6.75 32.25,-12.5 32.5,-14.5 0.25,-2 -1,-4.75 0.25,-5.5 1.25,-0.75 24.75,-6 24.75,-6"
           id="path5327" />
        <path
           style="opacity:0.38696002;stroke-linecap:round;stroke-linejoin:round"
           inkscape:connector-curvature="0"
           d="m 168.75,236 c 9,-13.75 20.5,-41 29.5,-42 9,-1 10.25,-2.5 12.5,-4.25 2.25,-1.75 17,2.25 17,2.25"
           id="path5329" />
      </g>
      <g
         style="fill:none;stroke:#d38484;stroke-width:2;stroke-linecap:round"
         transform="translate(0,-10)"
         clip-path="url(#clipPath5426)"
         id="g5400">
        <path
           inkscape:connector-curvature="0"
           d="m 57.75,20 -8.5,28.25 18,6.25 L 75,90.75 54,113 l 9,10.5 -12,11.5 0.5,4.5 20.25,24.5 14,-6.75 20.5,18.5 -10.5,28.25 10.25,8.5 -2.75,13"
           id="path5387" />
        <path
           inkscape:connector-curvature="0"
           d="m 105.75,212.25 12.5,-27.75 11,-7 27.5,15.75 20.5,-3.75 -0.25,-15.75 -10.25,-6 12.75,-26.25 5.75,-3.75 38.75,-10"
           id="path5389" />
      </g>
    </g>
    <g
       id="g5"
       transform="matrix(0.96161676,0,0,0.96161676,157.57261,-0.73032292)">
      <g
         id="g7">
        <linearGradient
           gradientTransform="matrix(432,0,0,460.8,-333.8,-365010.22)"
           y2="792.24438"
           x2="0.97729999"
           y1="792.24438"
           x1="0.80369997"
           gradientUnits="userSpaceOnUse"
           id="linearGradient4273">
          <stop
             id="stop4275"
             style="stop-color:#656565"
             offset="0" />
          <stop
             id="stop4277"
             style="stop-color:#010101"
             offset="1" />
        </linearGradient>
        <path
           inkscape:connector-curvature="0"
           style="fill:url(#SVGID_1_)"
           id="path14"
           d="m 13.4,61 c 0,0 75,7.5 75,20 l 0,-30 c 0,0 0,-12.5 -75,-20 l 0,11.6 0,18.4 z" />
        <linearGradient
           gradientTransform="matrix(432,0,0,460.8,-333.8,-364779.81)"
           y2="791.83118"
           x2="0.97729999"
           y1="791.83118"
           x1="0.80369997"
           gradientUnits="userSpaceOnUse"
           id="linearGradient4280">
          <stop
             id="stop4282"
             style="stop-color:#656565"
             offset="0" />
          <stop
             id="stop4284"
             style="stop-color:#010101"
             offset="1" />
        </linearGradient>
        <path
           inkscape:connector-curvature="0"
           style="fill:url(#SVGID_2_)"
           id="path21"
           d="m 13.4,101 c 0,0 75,7.5 75,20 l 0,-30 c 0,0 0,-12.5 -75,-20 l 0,30 z" />
      </g>
      <linearGradient
         gradientTransform="matrix(432,0,0,-460.8,-333.8,365415.41)"
         y2="792.92401"
         x2="0.97729999"
         y1="792.92401"
         x1="0.80369997"
         gradientUnits="userSpaceOnUse"
         id="linearGradient4287">
        <stop
           id="stop4289"
           style="stop-color:#9F1C20"
           offset="0" />
        <stop
           id="stop4291"
           style="stop-color:#ED2224"
           offset="1" />
      </linearGradient>
      <path
         inkscape:connector-curvature="0"
         style="fill:url(#SVGID_3_)"
         id="path28"
         d="m 88.4,11 0,30 c 0,0 0,12.5 -75,20 l 0,-30 c 0,0 75,-7.5 75,-20" />
      <linearGradient
         gradientTransform="matrix(432,0,0,-460.8,-333.8,365645.81)"
         y2="793.33722"
         x2="0.97729999"
         y1="793.33722"
         x1="0.80369997"
         gradientUnits="userSpaceOnUse"
         id="linearGradient4294">
        <stop
           id="stop4296"
           style="stop-color:#9F1C20"
           offset="0" />
        <stop
           id="stop4298"
           style="stop-color:#ED2224"
           offset="1" />
      </linearGradient>
      <path
         inkscape:connector-curvature="0"
         style="fill:url(#SVGID_4_)"
         id="path35"
         d="m 13.4,71 c 0,0 75,-7.5 75,-20 l 0,30 c 0,0 0,12.5 -75,20 l 0,-30 z" />
      <linearGradient
         gradientTransform="matrix(432,0,0,-460.8,-333.8,365876.22)"
         y2="793.75049"
         x2="0.97729999"
         y1="793.75049"
         x1="0.80369997"
         gradientUnits="userSpaceOnUse"
         id="linearGradient4301">
        <stop
           id="stop4303"
           style="stop-color:#9F1C20"
           offset="0" />
        <stop
           id="stop4305"
           style="stop-color:#ED2224"
           offset="1" />
      </linearGradient>
      <path
         inkscape:connector-curvature="0"
         style="fill:url(#SVGID_5_)"
         id="path42"
         d="m 13.4,141 0,-30 c 0,0 75,-7.5 75,-20 l 0,30 c 0,0 0,12.5 -75,20" />
    </g>
  </g>
</svg>
